<svg width="15" height="15" viewBox="0 0 15 15" fill="none" xmlns="http://www.w3.org/2000/svg">
<path d="M11.1288 4.31287C11.6001 4.31287 11.9821 3.93082 11.9821 3.45953C11.9821 2.98825 11.6001 2.6062 11.1288 2.6062C10.6575 2.6062 10.2755 2.98825 10.2755 3.45953C10.2755 3.93082 10.6575 4.31287 11.1288 4.31287Z" fill="#4D663C"/>
<path d="M7.44475 10.6668C5.48386 10.6668 3.88919 9.07211 3.88919 7.11122C3.88919 5.15033 5.48386 3.55566 7.44475 3.55566C9.40564 3.55566 11.0003 5.15033 11.0003 7.11122C11.0003 9.07211 9.40564 10.6668 7.44475 10.6668ZM7.44475 5.33344C6.4643 5.33344 5.66697 6.13078 5.66697 7.11122C5.66697 8.09166 6.4643 8.889 7.44475 8.889C8.42519 8.889 9.22252 8.09166 9.22252 7.11122C9.22252 6.13078 8.42519 5.33344 7.44475 5.33344Z" fill="#4D663C"/>
<path d="M11 14.2222H3.88887C2.06131 14.2222 0.333313 12.4942 0.333313 10.6667V3.55556C0.333313 1.728 2.06131 0 3.88887 0H11C12.8275 0 14.5555 1.728 14.5555 3.55556V10.6667C14.5555 12.4942 12.8275 14.2222 11 14.2222ZM3.88887 1.77778C3.05776 1.77778 2.11109 2.72444 2.11109 3.55556V10.6667C2.11109 11.5138 3.04176 12.4444 3.88887 12.4444H11C11.8311 12.4444 12.7778 11.4978 12.7778 10.6667V3.55556C12.7778 2.72444 11.8311 1.77778 11 1.77778H3.88887Z" fill="#4D663C"/>
</svg>
