<svg width="15" height="12" viewBox="0 0 15 12" fill="none" xmlns="http://www.w3.org/2000/svg">
<path d="M15.0001 1.66659C14.4668 1.93325 13.9334 2.02214 13.3112 2.11103C13.9334 1.75547 14.3779 1.22214 14.5557 0.51103C14.0223 0.866585 13.4001 1.04436 12.689 1.22214C12.1557 0.688807 11.3557 0.333252 10.5557 0.333252C9.04456 0.333252 7.71123 1.66659 7.71123 3.26659C7.71123 3.53325 7.71123 3.71103 7.80012 3.88881C5.40012 3.79992 3.17789 2.64436 1.75567 0.866585C1.489 1.31103 1.40012 1.75547 1.40012 2.3777C1.40012 3.35547 1.93345 4.24436 2.73345 4.7777C2.289 4.7777 1.84456 4.59992 1.40012 4.42214C1.40012 5.84436 2.37789 6.99992 3.71123 7.26659C3.44456 7.35547 3.17789 7.35547 2.91123 7.35547C2.73345 7.35547 2.55567 7.35547 2.37789 7.26659C2.73345 8.42214 3.80012 9.31103 5.13345 9.31103C4.15567 10.111 2.91123 10.5555 1.489 10.5555C1.22234 10.5555 1.04456 10.5555 0.777893 10.5555C2.11123 11.3555 3.62234 11.8888 5.22234 11.8888C10.5557 11.8888 13.489 7.44436 13.489 3.62214C13.489 3.53325 13.489 3.35547 13.489 3.26659C14.1112 2.82214 14.6446 2.28881 15.0001 1.66659Z" fill="#4D663C"/>
</svg>
